<svg xmlns="http://www.w3.org/2000/svg" width="1170" height="1500" viewBox="0 0 1170 1500">
<title>Editable structural lines; not finished art</title>
<polyline id="nera.spine" points="591.99,527.69 647.33,438.76 676.74,403.0 704.02,369.52" fill="none" stroke="#bb991d" stroke-width="4" stroke-linecap="round" stroke-linejoin="round"/>
<polyline id="nera.right.shoulder" points="656.68,429.48 740.93,463.89 783.74,518.3" fill="none" stroke="#bb991d" stroke-width="4" stroke-linecap="round" stroke-linejoin="round"/>
<polyline id="nera.right.hip" points="601.19,530.56 693.24,590.36 731.06,651.66" fill="none" stroke="#bb991d" stroke-width="4" stroke-linecap="round" stroke-linejoin="round"/>
<polyline id="nera.left.shoulder" points="629.03,425.9 619.89,499.61 709.16,458.61" fill="none" stroke="#bb991d" stroke-width="4" stroke-linecap="round" stroke-linejoin="round"/>
<polyline id="nera.left.hip" points="583.06,524.91 499.15,542.49 450.95,631.27" fill="none" stroke="#bb991d" stroke-width="4" stroke-linecap="round" stroke-linejoin="round"/>
<polyline id="odo.spine" points="287.53,972.73 329.16,882.45 353.14,845.32 367.72,814.39" fill="none" stroke="#2159a0" stroke-width="4" stroke-linecap="round" stroke-linejoin="round"/>
<polyline id="odo.right.shoulder" points="329.14,887.12 388.45,934.92 416.14,892.79" fill="none" stroke="#2159a0" stroke-width="4" stroke-linecap="round" stroke-linejoin="round"/>
<polyline id="odo.right.hip" points="291.15,980.77 371.51,1056.3 414.53,1130.02" fill="none" stroke="#2159a0" stroke-width="4" stroke-linecap="round" stroke-linejoin="round"/>
<polyline id="odo.left.shoulder" points="317.31,867.32 235.97,862.12 180.0,818.36" fill="none" stroke="#2159a0" stroke-width="4" stroke-linecap="round" stroke-linejoin="round"/>
<polyline id="odo.left.hip" points="284.0,964.89 218.6,1047.07 172.72,1096.26" fill="none" stroke="#2159a0" stroke-width="4" stroke-linecap="round" stroke-linejoin="round"/>
<polyline id="sentinel.foreleg" points="657.24,830.52 619.85,978.01 595.93,1155.76" fill="none" stroke="#63527f" stroke-width="7" stroke-linecap="round" stroke-linejoin="round"/>
<polyline id="sentinel.sweep_leg" points="734.48,842.35 549.67,1004.81 229.46,1052.16" fill="none" stroke="#63527f" stroke-width="7" stroke-linecap="round" stroke-linejoin="round"/>
<polyline id="sentinel.support_leg" points="736.97,799.93 802.77,924.4 825.93,1022.37" fill="none" stroke="#63527f" stroke-width="7" stroke-linecap="round" stroke-linejoin="round"/>
<polyline id="staff.segment0" points="667.75,425.46 923.51,630.19" fill="none" stroke="#513422" stroke-width="7" stroke-linecap="round" stroke-linejoin="round"/>
<polyline id="shutter.edge-1" points="1192.21,537.4 1184.12,671.95" fill="none" stroke="#404e5c" stroke-width="5" stroke-linecap="round" stroke-linejoin="round"/>
<polyline id="shutter.edge1" points="996.38,505.66 991.79,618.61" fill="none" stroke="#404e5c" stroke-width="5" stroke-linecap="round" stroke-linejoin="round"/>
<circle id="required_contact" cx="619.85" cy="978.01" r="17" fill="none" stroke="#d03939" stroke-width="4"/>
</svg>
