<svg xmlns="http://www.w3.org/2000/svg" width="390" height="500" viewBox="0 0 390 500" role="img" aria-labelledby="title desc">
<title id="title">Panel 11: original vertical action layout diagram</title>
<desc id="desc">Editable storyboard expectation, not final illustration or observed generated art. Only one Nera body. Dashed trajectory rises from west, stalls at cyan braking bars, then redirects down-right. Odo carries upright flask and continuous release cord, starts east. Shutter visibly raised.</desc>
<defs><marker id="arrow" markerWidth="7" markerHeight="7" refX="5" refY="3" orient="auto"><path d="M0 0 L6 3 L0 6" fill="none" stroke="#517588" stroke-width="1.5"/></marker></defs>
<g id="background" data-editable-layer="true"><rect x="0" y="0" width="390" height="500" rx="0" fill="#e8ece9" stroke="none"/><path d="M0 160.0 H390 M0 430.0 H390" fill="none" stroke="#c4cdce" stroke-width="2" stroke-linecap="round" stroke-linejoin="round" /><rect x="0" y="430.0" width="390" height="70.0" rx="0" fill="#9cadb4" stroke="none"/><path d="M0 422.0 H390 V440.0 H0 Z" fill="#a49c87" stroke="#788185" stroke-width="1" stroke-linecap="round" stroke-linejoin="round" /><rect x="22" y="25" width="17" height="405.0" rx="0" fill="#8f9da1" stroke="none"/><rect x="242" y="22" width="76" height="30" rx="0" fill="#424d59" stroke="none"/><rect x="341" y="45" width="44" height="385.0" rx="0" fill="#dfe4dd" stroke="#25303b"/><rect x="341" y="45" width="44" height="294.0" rx="0" fill="#7b8790" stroke="#25303b"/><line x1="343" y1="57" x2="383" y2="57" stroke="#53616b" stroke-width="1" stroke-linecap="round" /><line x1="343" y1="70" x2="383" y2="70" stroke="#53616b" stroke-width="1" stroke-linecap="round" /><line x1="343" y1="83" x2="383" y2="83" stroke="#53616b" stroke-width="1" stroke-linecap="round" /><line x1="343" y1="96" x2="383" y2="96" stroke="#53616b" stroke-width="1" stroke-linecap="round" /><line x1="343" y1="109" x2="383" y2="109" stroke="#53616b" stroke-width="1" stroke-linecap="round" /><line x1="343" y1="122" x2="383" y2="122" stroke="#53616b" stroke-width="1" stroke-linecap="round" /><line x1="343" y1="135" x2="383" y2="135" stroke="#53616b" stroke-width="1" stroke-linecap="round" /><line x1="343" y1="148" x2="383" y2="148" stroke="#53616b" stroke-width="1" stroke-linecap="round" /><line x1="343" y1="161" x2="383" y2="161" stroke="#53616b" stroke-width="1" stroke-linecap="round" /><line x1="343" y1="174" x2="383" y2="174" stroke="#53616b" stroke-width="1" stroke-linecap="round" /><line x1="343" y1="187" x2="383" y2="187" stroke="#53616b" stroke-width="1" stroke-linecap="round" /><line x1="343" y1="200" x2="383" y2="200" stroke="#53616b" stroke-width="1" stroke-linecap="round" /><line x1="343" y1="213" x2="383" y2="213" stroke="#53616b" stroke-width="1" stroke-linecap="round" /><line x1="343" y1="226" x2="383" y2="226" stroke="#53616b" stroke-width="1" stroke-linecap="round" /><line x1="343" y1="239" x2="383" y2="239" stroke="#53616b" stroke-width="1" stroke-linecap="round" /><line x1="343" y1="252" x2="383" y2="252" stroke="#53616b" stroke-width="1" stroke-linecap="round" /><line x1="343" y1="265" x2="383" y2="265" stroke="#53616b" stroke-width="1" stroke-linecap="round" /><line x1="343" y1="278" x2="383" y2="278" stroke="#53616b" stroke-width="1" stroke-linecap="round" /><line x1="343" y1="291" x2="383" y2="291" stroke="#53616b" stroke-width="1" stroke-linecap="round" /><line x1="343" y1="304" x2="383" y2="304" stroke="#53616b" stroke-width="1" stroke-linecap="round" /><line x1="343" y1="317" x2="383" y2="317" stroke="#53616b" stroke-width="1" stroke-linecap="round" /><line x1="343" y1="330" x2="383" y2="330" stroke="#53616b" stroke-width="1" stroke-linecap="round" /><path d="M30 365.0 V35 H364 V45" fill="none" stroke="#424b54" stroke-width="2" stroke-linecap="round" stroke-linejoin="round" /><ellipse cx="30" cy="365.0" rx="6" ry="6" fill="#d3c6a2" stroke="#25303b" stroke-width="2"/><rect x="20" y="18" width="348" height="68" rx="8" fill="#f6f4e9" stroke="#bdc8c8"/></g><g id="threat" data-editable-layer="true"><path d="M280 338 L260 378 L234 414" fill="none" stroke="#657181" stroke-width="10" stroke-linecap="round" stroke-linejoin="round" /><path d="M280 338 L260 378 L234 414" fill="none" stroke="#25303b" stroke-width="2" stroke-linecap="round" stroke-linejoin="round" /><path d="M309 346 L194 359 L92 381" fill="none" stroke="#657181" stroke-width="10" stroke-linecap="round" stroke-linejoin="round" /><path d="M309 346 L194 359 L92 381" fill="none" stroke="#25303b" stroke-width="2" stroke-linecap="round" stroke-linejoin="round" /><path d="M338 329 L369 365 L376 410" fill="none" stroke="#657181" stroke-width="10" stroke-linecap="round" stroke-linejoin="round" /><path d="M338 329 L369 365 L376 410" fill="none" stroke="#25303b" stroke-width="2" stroke-linecap="round" stroke-linejoin="round" /><path d="M262.8 323 L314.1 299.6 L351.9 324.8 L304.2 350.0 Z" fill="#667481" stroke="#25303b" stroke-width="3" stroke-linecap="round" stroke-linejoin="round" /><line x1="292.5" y1="326.6" x2="321.3" y2="326.6" stroke="#b585d4" stroke-width="4" stroke-linecap="round" /></g><g id="actors" data-editable-layer="true"><g id="actor-nera" transform="translate(219 188) rotate(-18) scale(1.05)"><ellipse cx="0" cy="10" rx="6.5" ry="9" fill="#b58467" stroke="#25303b" stroke-width="2"/><path d="M-7 9 Q-10 -3 0 0 Q9 -2 7 9" fill="#252730" stroke="#25303b" stroke-width="2" stroke-linecap="round" stroke-linejoin="round" /><line x1="1" y1="10" x2="5" y2="10" stroke="#25303b" stroke-width="1" stroke-linecap="round" /><line x1="2" y1="15" x2="5" y2="15" stroke="#25303b" stroke-width="1" stroke-linecap="round" /><path d="M-5 20 L-13 26 L-10 59 L11 59 L13 26 L5 20 Z" fill="#dfc969" stroke="#25303b" stroke-width="3" stroke-linecap="round" stroke-linejoin="round" /><path d="M-7 21 L-20 45 L-7 40 L13 49 L14 26 Z" fill="#dfc969" stroke="#25303b" stroke-width="2" stroke-linecap="round" stroke-linejoin="round" /><path d="M-13 29 L-31 7 M13 29 L40 21" fill="none" stroke="#dfc969" stroke-width="9" stroke-linecap="round" stroke-linejoin="round" /><ellipse cx="-31" cy="7" rx="3.5" ry="4" fill="#b58467" stroke="#25303b" stroke-width="2"/><ellipse cx="40" cy="21" rx="3.5" ry="4" fill="#b58467" stroke="#25303b" stroke-width="2"/><path d="M-7 59 L-27 52 L-30 79 M7 59 L20 60 L34 70" fill="none" stroke="#25303b" stroke-width="10" stroke-linecap="round" stroke-linejoin="round" /><line x1="-32" y1="79" x2="-24" y2="79" stroke="#25303b" stroke-width="6" stroke-linecap="round" /><line x1="32" y1="70" x2="40" y2="70" stroke="#25303b" stroke-width="6" stroke-linecap="round" /></g><g id="actor-odo" transform="translate(111 331) rotate(0) scale(0.84)"><ellipse cx="0" cy="10" rx="6.5" ry="9" fill="#b58467" stroke="#25303b" stroke-width="2"/><path d="M-7 9 Q-10 -3 0 0 Q9 -2 7 9" fill="#bec3ca" stroke="#25303b" stroke-width="2" stroke-linecap="round" stroke-linejoin="round" /><line x1="1" y1="10" x2="5" y2="10" stroke="#25303b" stroke-width="1" stroke-linecap="round" /><line x1="2" y1="15" x2="5" y2="15" stroke="#25303b" stroke-width="1" stroke-linecap="round" /><path d="M-5 20 L-17 26 L-14 59 L15 59 L17 26 L5 20 Z" fill="#3d65af" stroke="#25303b" stroke-width="3" stroke-linecap="round" stroke-linejoin="round" /><path d="M-17 29 L-30 32 M17 29 L30 47" fill="none" stroke="#3d65af" stroke-width="9" stroke-linecap="round" stroke-linejoin="round" /><ellipse cx="-30" cy="32" rx="3.5" ry="4" fill="#b58467" stroke="#25303b" stroke-width="2"/><ellipse cx="30" cy="47" rx="3.5" ry="4" fill="#b58467" stroke="#25303b" stroke-width="2"/><path d="M-7 59 L-20 71 L-30 98 M7 59 L20 85 L35 100" fill="none" stroke="#25303b" stroke-width="10" stroke-linecap="round" stroke-linejoin="round" /><line x1="-32" y1="98" x2="-24" y2="98" stroke="#25303b" stroke-width="6" stroke-linecap="round" /><line x1="33" y1="100" x2="41" y2="100" stroke="#25303b" stroke-width="6" stroke-linecap="round" /></g></g><g id="props" data-editable-layer="true"><g transform="translate(139 370) scale(0.62)"><rect x="-6" y="-11" width="12" height="23" rx="3" fill="#ad7433" stroke="#25303b"/><rect x="-5" y="-15" width="10" height="5" rx="0" fill="#ddd7c7" stroke="#25303b"/><line x1="-2" y1="-7" x2="-2" y2="7" stroke="#f4ce89" stroke-width="2" stroke-linecap="round" /></g><path d="M30 365 Q34 415 68 406 L86 358" fill="none" stroke="#7e6651" stroke-width="2" stroke-linecap="round" stroke-linejoin="round" /><line x1="244" y1="193" x2="294" y2="246" stroke="#574b3c" stroke-width="5" stroke-linecap="round" /></g><g id="effects" data-editable-layer="true"><path d="M130 355 Q155 208 218 176 Q265 179 285 279" fill="none" stroke="#517588" stroke-width="2.6" stroke-linecap="round" stroke-linejoin="round" stroke-dasharray="6 5" marker-end="url(#arrow)"/><path d="M185 195 l22 -14 m-17 27 l24 -13 m-6 36 l18 -13" fill="none" stroke="#81c8d1" stroke-width="5" stroke-linecap="round" stroke-linejoin="round" /></g>
</svg>