<svg xmlns="http://www.w3.org/2000/svg" viewBox="0 0 1024 1536" role="img" aria-label="el-pr-ch01-s01-p006: Mira confirms that Elian still has both Iron Seals as his thumb moves toward them."><title>el-pr-ch01-s01-p006: Mira confirms that Elian still has both Iron Seals as his thumb moves toward them.</title><path d="M69.6,76.8 C41.0,97.1 41.0,215.3 63.5,245.8 C134.1,253.1 294.9,245.8 307.2,203.5 C312.1,110.6 286.7,76.8 69.6,76.8Z" fill="#f6f0e4" fill-opacity=".94" stroke="#11151b" stroke-width="3"/><path d="M239.6,245.8 Q389.1,491.5 284.7,241.7Z" fill="#f6f0e4" fill-opacity=".92" stroke="#11151b" stroke-width="3" stroke-linejoin="round"/><text text-anchor="middle" font-family="Arial,sans-serif" font-size="41.0" font-weight="720" fill="#12151a"><tspan x="174.1" y="138.3">Both</tspan><tspan x="174.1" y="184.2">seals?</tspan></text><path d="M735.2,1228.8 C711.5,1249.1 701.6,1367.3 729.1,1397.8 C796.2,1405.1 950.3,1392.8 962.6,1355.5 C967.5,1262.6 942.1,1233.7 735.2,1228.8Z" fill="#f6f0e4" fill-opacity=".94" stroke="#11151b" stroke-width="3"/><path d="M720.9,1228.8 Q604.2,1059.8 766.0,1224.7Z" fill="#f6f0e4" fill-opacity=".92" stroke="#11151b" stroke-width="3" stroke-linejoin="round"/><text text-anchor="middle" font-family="Arial,sans-serif" font-size="41.0" font-weight="720" fill="#12151a"><tspan x="834.6" y="1290.3">Still</tspan><tspan x="834.6" y="1336.2">mine.</tspan></text><rect x="41.0" y="76.8" width="266.2" height="169.0" fill="#ff7447" fill-opacity=".10" stroke="#ffd36f" stroke-width="4"/><circle cx="59.0" cy="94.8" r="16" fill="#11151b" stroke="#ffd36f" stroke-width="3"/><text x="59.0" y="101.8" text-anchor="middle" font-family="Arial" font-size="19" font-weight="900" fill="#ffd36f">1</text><text x="49.0" y="237.8" font-family="Arial" font-size="17" font-weight="800" fill="#fff" stroke="#11151b" stroke-width="4" paint-order="stroke">15.6px PHONE</text><rect x="706.6" y="1228.8" width="256.0" height="169.0" fill="#ff7447" fill-opacity=".10" stroke="#ffd36f" stroke-width="4"/><circle cx="724.6" cy="1246.8" r="16" fill="#11151b" stroke="#ffd36f" stroke-width="3"/><text x="724.6" y="1253.8" text-anchor="middle" font-family="Arial" font-size="19" font-weight="900" fill="#ffd36f">2</text><text x="714.6" y="1389.8" font-family="Arial" font-size="17" font-weight="800" fill="#fff" stroke="#11151b" stroke-width="4" paint-order="stroke">15.6px PHONE</text><rect x="12" y="12" width="430" height="54" rx="8" fill="#11151b" fill-opacity=".94"/><text x="26" y="46" font-family="Arial" font-size="21" font-weight="800" fill="#ffd36f">AREA 5.6% · SPOKEN 4 WORDS</text></svg>
