<svg xmlns="http://www.w3.org/2000/svg" width="1200" height="800" viewBox="0 0 1200 800" role="img"><title>ST07 original pose and contact staging</title><desc>opposed recoil directions; grounded sliding feet; pulse spent; LEFT chip persists; ram off balance</desc><rect width="1200" height="800" fill="#f5f4ed"/><rect width="1200" height="800" fill="#f5f4ed"/><path d="M 0 570 Q 300 470 570 550 Q 920 450 1200 530 L 1200 745 L 0 745 Z" fill="#dce5d4" stroke="#b6c2ab" stroke-width="2" stroke-linecap="round" stroke-linejoin="round"/><polygon points="0,610 1200,590 1200,745 0,745" fill="#ede3cb" stroke="#c5bca5" stroke-width="2" /><polyline points="80,635 80,455" fill="none" stroke="#aaa08d" stroke-width="12" stroke-linecap="round" stroke-linejoin="round"/><text x="40" y="430" font-family="Arial,sans-serif" font-size="14" fill="#9c917c">POST</text><ellipse cx="1100" cy="585" rx="70" ry="48" fill="#c6d7e1" stroke="#92a9b6" stroke-width="3"/><text x="1070" y="520" font-family="Arial,sans-serif" font-size="14" fill="#8d9ea7">ROCK</text><g id="four-legged-gale-ram"><polyline points="857.2,412.7 803.6,545.0 750,608" fill="none" stroke="#233344" stroke-width="32.4" stroke-linecap="round" stroke-linejoin="round"/><polyline points="857.2,412.7 803.6,545.0 750,608" fill="none" stroke="#7797af" stroke-width="27.0" stroke-linecap="round" stroke-linejoin="round"/><polyline points="738.3,608 763.5,608" fill="none" stroke="#233344" stroke-width="8.1" stroke-linecap="round" stroke-linejoin="round"/><polyline points="1066.0,408.2 1084.5,545.0 1103,610" fill="none" stroke="#233344" stroke-width="32.4" stroke-linecap="round" stroke-linejoin="round"/><polyline points="1066.0,408.2 1084.5,545.0 1103,610" fill="none" stroke="#7797af" stroke-width="27.0" stroke-linecap="round" stroke-linejoin="round"/><polyline points="1091.3,610 1116.5,610" fill="none" stroke="#233344" stroke-width="8.1" stroke-linecap="round" stroke-linejoin="round"/><polyline points="805.0,435.2 809.0,545.0 813,631" fill="none" stroke="#233344" stroke-width="32.4" stroke-linecap="round" stroke-linejoin="round"/><polyline points="805.0,435.2 809.0,545.0 813,631" fill="none" stroke="#9bbacb" stroke-width="27.0" stroke-linecap="round" stroke-linejoin="round"/><polyline points="801.3,631 826.5,631" fill="none" stroke="#233344" stroke-width="8.1" stroke-linecap="round" stroke-linejoin="round"/><polyline points="1016.5,433.4 1025.25,545.0 1034,650" fill="none" stroke="#233344" stroke-width="32.4" stroke-linecap="round" stroke-linejoin="round"/><polyline points="1016.5,433.4 1025.25,545.0 1034,650" fill="none" stroke="#9bbacb" stroke-width="27.0" stroke-linecap="round" stroke-linejoin="round"/><polyline points="1022.3,650 1047.5,650" fill="none" stroke="#233344" stroke-width="8.1" stroke-linecap="round" stroke-linejoin="round"/><ellipse cx="913" cy="365" rx="186.3" ry="120.60000000000001" fill="#9bbacb" stroke="#233344" stroke-width="3"/><path d="M 1078.6 369.5 Q 1147.0 297.5 1144.3 368.6 Q 1118.2 396.5 1093.9 383.9" fill="#9bbacb" stroke="#233344" stroke-width="3" stroke-linecap="round" stroke-linejoin="round"/><ellipse cx="750.1" cy="379.4" rx="80.10000000000001" ry="81.9" fill="#9bbacb" stroke="#233344" stroke-width="3"/><ellipse cx="733.9" cy="323.59999999999997" rx="36.0" ry="38.7" fill="#729aaf" stroke="#233344" stroke-width="3"/><path d="M 750.1 317.29999999999995 A 20.7 20.7 0 1 0 726.7 340.7" fill="none" stroke="#c2d6df" stroke-width="5.4" stroke-linecap="round" stroke-linejoin="round"/><ellipse cx="801.4" cy="341.59999999999997" rx="36.0" ry="38.7" fill="#729aaf" stroke="#233344" stroke-width="3"/><path d="M 817.6 335.29999999999995 A 20.7 20.7 0 1 0 794.2 358.7" fill="none" stroke="#c2d6df" stroke-width="5.4" stroke-linecap="round" stroke-linejoin="round"/><ellipse cx="706.9" cy="417.2" rx="56.7" ry="41.4" fill="#e9e0c9" stroke="#233344" stroke-width="3"/><ellipse cx="774.4" cy="410.9" rx="21.6" ry="19.8" fill="#d38b65" stroke="#233344" stroke-width="2"/><polyline points="717.7,368.59999999999997 751.9,361.4" fill="none" stroke="#233344" stroke-width="5.4" stroke-linecap="round" stroke-linejoin="round"/><ellipse cx="737.5" cy="380.29999999999995" rx="3.6" ry="5.4" fill="#f5f4ed" stroke="#233344" stroke-width="2"/><path d="M 677.2 415.4 Q 706.9 428.0 731.2 423.5" fill="none" stroke="#233344" stroke-width="3" stroke-linecap="round" stroke-linejoin="round"/></g><g id="pose-T"><polyline points="381,516 438,577 481,646" fill="none" stroke="#233344" stroke-width="29" stroke-linecap="round" stroke-linejoin="round"/><polyline points="381,516 438,577 481,646" fill="none" stroke="#bdd8d4" stroke-width="24" stroke-linecap="round" stroke-linejoin="round"/><polyline points="473,646 499,646" fill="none" stroke="#233344" stroke-width="10" stroke-linecap="round" stroke-linejoin="round"/><polyline points="337,517 270,574 235,641" fill="none" stroke="#233344" stroke-width="29" stroke-linecap="round" stroke-linejoin="round"/><polyline points="337,517 270,574 235,641" fill="none" stroke="#bdd8d4" stroke-width="24" stroke-linecap="round" stroke-linejoin="round"/><polyline points="227,641 253,641" fill="none" stroke="#233344" stroke-width="10" stroke-linecap="round" stroke-linejoin="round"/><polygon points="331,415 372,411 381,516 337,517" fill="#bdd8d4" stroke="#233344" stroke-width="3" /><polyline points="372,411 257,441 207,402" fill="none" stroke="#233344" stroke-width="20" stroke-linecap="round" stroke-linejoin="round"/><polyline points="372,411 257,441 207,402" fill="none" stroke="#bdd8d4" stroke-width="16" stroke-linecap="round" stroke-linejoin="round"/><polyline points="372,411 257,441 207,402" fill="none" stroke="#367891" stroke-width="2.5" stroke-linecap="round" stroke-linejoin="round"/><ellipse cx="207" cy="402" rx="16" ry="16" fill="#c76559" stroke="#233344" stroke-width="2"/><path d="M 212,393 A 10,10 0 1 0 212,411 A 7,9 0 0 1 212,393" fill="#fff5d8" stroke="#fff5d8" stroke-width="1" stroke-linecap="round" stroke-linejoin="round"/><polygon points="192,402 203,408 194,415" fill="#f5f4ed" stroke="#233344" stroke-width="1" /><polyline points="207,402 171,429" fill="none" stroke="#367891" stroke-width="1.5" stroke-linecap="round" stroke-linejoin="round"/><text x="173" y="427" font-family="Arial,sans-serif" font-size="14" fill="#367891">T L</text><polyline points="331,415 309,452 340,484" fill="none" stroke="#233344" stroke-width="20" stroke-linecap="round" stroke-linejoin="round"/><polyline points="331,415 309,452 340,484" fill="none" stroke="#bdd8d4" stroke-width="16" stroke-linecap="round" stroke-linejoin="round"/><polyline points="331,415 309,452 340,484" fill="none" stroke="#a46b16" stroke-width="2.5" stroke-linecap="round" stroke-linejoin="round"/><ellipse cx="340" cy="484" rx="16" ry="16" fill="#c76559" stroke="#233344" stroke-width="2"/><ellipse cx="340" cy="484" rx="8" ry="8" fill="#fff5d8" stroke="#a46b16" stroke-width="1.4"/><polyline points="340,484 360,466" fill="none" stroke="#a46b16" stroke-width="1.5" stroke-linecap="round" stroke-linejoin="round"/><text x="362" y="464" font-family="Arial,sans-serif" font-size="14" fill="#a46b16">T R</text><polyline points="351.5,413.0 349,394" fill="none" stroke="#233344" stroke-width="12" stroke-linecap="round" stroke-linejoin="round"/><ellipse cx="349" cy="373" rx="24" ry="29" fill="#eee9df" stroke="#233344" stroke-width="3"/><polygon points="367,368 381,378 366,382" fill="#eee9df" stroke="#233344" stroke-width="2" /><ellipse cx="359" cy="369" rx="2.5" ry="2.5" fill="#233344" stroke="#233344" stroke-width="1"/></g><polyline points="455,667 290,680" fill="none" stroke="#de7047" stroke-width="5" stroke-linecap="round" stroke-linejoin="round"/><polygon points="290,680 302.0890158535621,672.9391434165304 303.04561172800834,685.0805525921943" fill="#de7047" stroke="#de7047" stroke-width="1" /><polyline points="925,559 1065,588" fill="none" stroke="#de7047" stroke-width="5" stroke-linecap="round" stroke-linejoin="round"/><polygon points="1065,588 1051.420613932973,591.4059175037916 1053.890971425049,579.4800537489416" fill="#de7047" stroke="#de7047" stroke-width="1" /><polyline points="216,649 254,649" fill="none" stroke="#407662" stroke-width="5" stroke-linecap="round" stroke-linejoin="round"/><polygon points="235,651 229,662 241,662" fill="#407662" stroke="#407662" stroke-width="2" /><polyline points="462,654 500,654" fill="none" stroke="#407662" stroke-width="5" stroke-linecap="round" stroke-linejoin="round"/><polygon points="481,656 475,667 487,667" fill="#407662" stroke="#407662" stroke-width="2" /><polyline points="1015,658 1053,658" fill="none" stroke="#407662" stroke-width="5" stroke-linecap="round" stroke-linejoin="round"/><polygon points="1034,660 1028,671 1040,671" fill="#407662" stroke="#407662" stroke-width="2" /><polyline points="1084,618 1122,618" fill="none" stroke="#407662" stroke-width="5" stroke-linecap="round" stroke-linejoin="round"/><polygon points="1103,620 1097,631 1109,631" fill="#407662" stroke="#407662" stroke-width="2" /><text x="26" y="35" font-family="Arial,sans-serif" font-size="19" fill="#233344">ST07  /  wide diagonal</text><text x="26" y="774" font-family="Arial,sans-serif" font-size="15" fill="#71818a">STAGING ONLY  ·  R amber / L blue  ·  green = support  ·  orange = motion/contact</text></svg>