<svg xmlns="http://www.w3.org/2000/svg" viewBox="0 0 1024 1536" role="img" aria-label="el-pr-ch01-s03-p033: Mira identifies the talisman as the Chainworks exit plan; Elian chooses to spend it without claiming her permission."><title>el-pr-ch01-s03-p033: Mira identifies the talisman as the Chainworks exit plan; Elian chooses to spend it without claiming her permission.</title><path d="M69.6,61.4 C41.0,78.0 41.0,174.8 63.5,199.7 C166.4,207.1 387.1,199.7 399.4,165.1 C404.3,89.1 378.9,61.4 69.6,61.4Z" fill="#f6f0e4" fill-opacity=".94" stroke="#11151b" stroke-width="3"/><path d="M331.8,199.7 Q696.3,522.2 376.8,195.6Z" fill="#f6f0e4" fill-opacity=".92" stroke="#11151b" stroke-width="3" stroke-linejoin="round"/><text text-anchor="middle" font-family="Arial,sans-serif" font-size="41.0" font-weight="720" fill="#12151a"><tspan x="220.2" y="84.7">That gets us</tspan><tspan x="220.2" y="130.6">through</tspan><tspan x="220.2" y="176.4">Chainworks.</tspan></text><path d="M79.9,215.0 C56.1,233.5 46.3,341.0 73.7,368.6 C173.1,376.0 387.1,363.7 399.4,330.2 C404.3,245.8 378.9,220.0 79.9,215.0Z" fill="#f6f0e4" fill-opacity=".94" stroke="#11151b" stroke-width="3"/><path d="M311.3,368.6 Q337.9,583.7 356.4,364.5Z" fill="#f6f0e4" fill-opacity=".92" stroke="#11151b" stroke-width="3" stroke-linejoin="round"/><text text-anchor="middle" font-family="Arial,sans-serif" font-size="41.0" font-weight="720" fill="#12151a"><tspan x="225.3" y="268.9">Only if you</tspan><tspan x="225.3" y="314.8">can let go.</tspan></text><path d="M673.8,1105.9 C640.2,1124.4 650.0,1231.9 667.6,1259.5 C759.8,1266.9 960.5,1264.4 972.8,1221.1 C977.7,1136.6 952.3,1101.0 673.8,1105.9Z" fill="#f6f0e4" fill-opacity=".94" stroke="#11151b" stroke-width="3"/><path d="M669.7,1105.9 Q696.3,921.6 714.8,1101.8Z" fill="#f6f0e4" fill-opacity=".92" stroke="#11151b" stroke-width="3" stroke-linejoin="round"/><text text-anchor="middle" font-family="Arial,sans-serif" font-size="41.0" font-weight="720" fill="#12151a"><tspan x="809.0" y="1113.9">I didn&#x27;t</tspan><tspan x="809.0" y="1159.8">tell you</tspan><tspan x="809.0" y="1205.7">to spend</tspan><tspan x="809.0" y="1251.5">it.</tspan></text><path d="M735.2,1290.2 C706.6,1306.8 706.6,1403.6 729.1,1428.5 C796.2,1435.9 950.3,1428.5 962.6,1393.9 C967.5,1317.9 942.1,1290.2 735.2,1290.2Z" fill="#f6f0e4" fill-opacity=".88" stroke="#11151b" stroke-width="3" stroke-dasharray="8 6"/><path d="M720.9,1290.2 Q409.6,967.7 766.0,1286.1Z" fill="#f6f0e4" fill-opacity=".92" stroke="#11151b" stroke-width="3" stroke-linejoin="round"/><text text-anchor="middle" font-family="Arial,sans-serif" font-size="41.0" font-weight="600" fill="#12151a"><tspan x="834.6" y="1359.4">I know.</tspan></text></svg>
